<svg width="1414" height="1176" viewBox="0 0 1414 1176" fill="none" xmlns="http://www.w3.org/2000/svg">
<path fill-rule="evenodd" clip-rule="evenodd" d="M1011.39 1175.5H852.785C816.172 1175.5 782.486 1155.49 764.97 1123.34L346.872 355.871C334.398 332.974 327.863 307.316 327.863 281.242V100C327.863 44.7715 372.634 0 427.863 0H567.637C584.812 0 600.489 9.77554 608.046 25.1976L1101.19 1031.49C1133.75 1097.94 1085.38 1175.5 1011.39 1175.5ZM761.45 43.7069L1049.18 603.869C1063.56 631.871 1105.86 621.642 1105.86 590.162V347.628C1105.86 341.653 1113.64 339.35 1116.89 344.363L1317 652.837C1333.49 678.259 1372.53 657.923 1361.15 629.84L1131.17 62.4365C1115.87 24.6951 1079.21 0 1038.49 0H788.135C765.691 0 751.195 23.7426 761.45 43.7069ZM371.9 687.365L616.92 1131C627.963 1150.99 613.501 1175.5 590.659 1175.5H383.01C342.286 1175.5 305.63 1150.8 290.333 1113.06L60.3542 545.66C48.9716 517.577 88.0056 497.241 104.497 522.663L256.793 757.433C274.137 784.169 315.639 771.886 315.639 740.017V701.869C315.639 670.874 356.915 660.233 371.9 687.365ZM42.5136 414.257C42.5136 425.997 32.9966 435.514 21.2568 435.514C9.51698 435.514 0 425.997 0 414.257C0 402.517 9.51698 393 21.2568 393C32.9966 393 42.5136 402.517 42.5136 414.257ZM1381.04 721.249C1371.08 727.462 1368.04 740.574 1374.25 750.535C1380.46 760.496 1393.57 763.535 1403.54 757.322C1413.5 751.109 1416.53 737.997 1410.32 728.036C1404.11 718.075 1391 715.037 1381.04 721.249Z" fill="url(#paint0_linear_805_18)"/>
<defs>
<linearGradient id="paint0_linear_805_18" x1="1299.5" y1="-128.5" x2="269" y2="1228" gradientUnits="userSpaceOnUse">
<stop stop-color="#FF0000"/>
<stop offset="1" stop-color="#EB00FF"/>
</linearGradient>
</defs>
</svg>
